<mxfile host="app.diagrams.net" agent="Mozilla/5.0 (Windows NT 10.0; Win64; x64) AppleWebKit/537.36 (KHTML, like Gecko) Chrome/134.0.0.0 Safari/537.36" version="26.2.2">
  <diagram name="Page-1" id="SfPSA6i4i7ZImJzIwv-l">
    <mxGraphModel dx="1153" dy="630" grid="1" gridSize="10" guides="1" tooltips="1" connect="1" arrows="1" fold="1" page="1" pageScale="1" pageWidth="1100" pageHeight="850" math="0" shadow="0">
      <root>
        <mxCell id="0" />
        <mxCell id="1" parent="0" />
        <mxCell id="4Jh9RYMsEegQv2k9eJxr-1" value="" style="rounded=0;whiteSpace=wrap;html=1;" parent="1" vertex="1">
          <mxGeometry x="328" y="170" width="982" height="540" as="geometry" />
        </mxCell>
        <mxCell id="4Jh9RYMsEegQv2k9eJxr-2" value="" style="rounded=0;whiteSpace=wrap;html=1;fillColor=none;strokeWidth=3;" parent="1" vertex="1">
          <mxGeometry x="340" y="180" width="960" height="490" as="geometry" />
        </mxCell>
        <mxCell id="4Jh9RYMsEegQv2k9eJxr-7" value="" style="rounded=0;whiteSpace=wrap;html=1;fillColor=#dae8fc;strokeColor=#6c8ebf;" parent="1" vertex="1">
          <mxGeometry x="580" y="578" width="60" height="90" as="geometry" />
        </mxCell>
        <mxCell id="4Jh9RYMsEegQv2k9eJxr-10" value="" style="rounded=0;whiteSpace=wrap;html=1;fillColor=#d5e8d4;strokeColor=#82b366;" parent="1" vertex="1">
          <mxGeometry x="770" y="490" width="40" height="40" as="geometry" />
        </mxCell>
        <mxCell id="4Jh9RYMsEegQv2k9eJxr-11" value="" style="rounded=0;whiteSpace=wrap;html=1;fillColor=#d5e8d4;strokeColor=#82b366;" parent="1" vertex="1">
          <mxGeometry x="650" y="490" width="41" height="40" as="geometry" />
        </mxCell>
        <mxCell id="4Jh9RYMsEegQv2k9eJxr-13" value="" style="rounded=0;whiteSpace=wrap;html=1;fillColor=#d5e8d4;strokeColor=#82b366;" parent="1" vertex="1">
          <mxGeometry x="650" y="440" width="40" height="50" as="geometry" />
        </mxCell>
        <mxCell id="4Jh9RYMsEegQv2k9eJxr-14" value="" style="rounded=0;whiteSpace=wrap;html=1;fillColor=#d5e8d4;strokeColor=#82b366;" parent="1" vertex="1">
          <mxGeometry x="650" y="390" width="40" height="50" as="geometry" />
        </mxCell>
        <mxCell id="4Jh9RYMsEegQv2k9eJxr-15" value="" style="rounded=0;whiteSpace=wrap;html=1;fillColor=#d5e8d4;strokeColor=#82b366;" parent="1" vertex="1">
          <mxGeometry x="650" y="330" width="40" height="60" as="geometry" />
        </mxCell>
        <mxCell id="4Jh9RYMsEegQv2k9eJxr-16" value="" style="rounded=0;whiteSpace=wrap;html=1;fillColor=#d5e8d4;strokeColor=#82b366;" parent="1" vertex="1">
          <mxGeometry x="1210" y="470" width="90" height="30" as="geometry" />
        </mxCell>
        <mxCell id="4Jh9RYMsEegQv2k9eJxr-17" value="" style="rounded=0;whiteSpace=wrap;html=1;fillColor=#d5e8d4;strokeColor=#82b366;" parent="1" vertex="1">
          <mxGeometry x="1250" y="540" width="49" height="40" as="geometry" />
        </mxCell>
        <mxCell id="4Jh9RYMsEegQv2k9eJxr-18" value="" style="rounded=0;whiteSpace=wrap;html=1;fillColor=#d5e8d4;strokeColor=#82b366;" parent="1" vertex="1">
          <mxGeometry x="730" y="330" width="40" height="40" as="geometry" />
        </mxCell>
        <mxCell id="4Jh9RYMsEegQv2k9eJxr-19" value="" style="rounded=0;whiteSpace=wrap;html=1;fillColor=#d5e8d4;strokeColor=#82b366;" parent="1" vertex="1">
          <mxGeometry x="770" y="330" width="40" height="40" as="geometry" />
        </mxCell>
        <mxCell id="4Jh9RYMsEegQv2k9eJxr-20" value="" style="rounded=0;whiteSpace=wrap;html=1;fillColor=#d5e8d4;strokeColor=#82b366;" parent="1" vertex="1">
          <mxGeometry x="830" y="330" width="40" height="40" as="geometry" />
        </mxCell>
        <mxCell id="4Jh9RYMsEegQv2k9eJxr-21" value="" style="rounded=0;whiteSpace=wrap;html=1;fillColor=#d5e8d4;strokeColor=#82b366;" parent="1" vertex="1">
          <mxGeometry x="830" y="370" width="40" height="40" as="geometry" />
        </mxCell>
        <mxCell id="4Jh9RYMsEegQv2k9eJxr-22" value="" style="rounded=0;whiteSpace=wrap;html=1;fillColor=#d5e8d4;strokeColor=#82b366;" parent="1" vertex="1">
          <mxGeometry x="830" y="410" width="40" height="40" as="geometry" />
        </mxCell>
        <mxCell id="4Jh9RYMsEegQv2k9eJxr-23" value="" style="rounded=0;whiteSpace=wrap;html=1;fillColor=#d5e8d4;strokeColor=#82b366;" parent="1" vertex="1">
          <mxGeometry x="830" y="450" width="40" height="40" as="geometry" />
        </mxCell>
        <mxCell id="4Jh9RYMsEegQv2k9eJxr-24" value="" style="rounded=0;whiteSpace=wrap;html=1;fillColor=#d5e8d4;strokeColor=#82b366;" parent="1" vertex="1">
          <mxGeometry x="770" y="370" width="40" height="40" as="geometry" />
        </mxCell>
        <mxCell id="4Jh9RYMsEegQv2k9eJxr-25" value="" style="rounded=0;whiteSpace=wrap;html=1;fillColor=#d5e8d4;strokeColor=#82b366;" parent="1" vertex="1">
          <mxGeometry x="770" y="410" width="40" height="40" as="geometry" />
        </mxCell>
        <mxCell id="4Jh9RYMsEegQv2k9eJxr-26" value="" style="rounded=0;whiteSpace=wrap;html=1;fillColor=#d5e8d4;strokeColor=#82b366;" parent="1" vertex="1">
          <mxGeometry x="770" y="450" width="40" height="40" as="geometry" />
        </mxCell>
        <mxCell id="4Jh9RYMsEegQv2k9eJxr-27" value="" style="rounded=0;whiteSpace=wrap;html=1;fillColor=#dae8fc;strokeColor=#6c8ebf;strokeWidth=1;" parent="1" vertex="1">
          <mxGeometry x="340" y="580" width="120" height="90" as="geometry" />
        </mxCell>
        <mxCell id="4Jh9RYMsEegQv2k9eJxr-28" value="" style="rounded=0;whiteSpace=wrap;html=1;fillColor=#d5e8d4;strokeColor=#82b366;" parent="1" vertex="1">
          <mxGeometry x="430" y="420" width="50" height="50" as="geometry" />
        </mxCell>
        <mxCell id="4Jh9RYMsEegQv2k9eJxr-29" value="" style="rounded=0;whiteSpace=wrap;html=1;fillColor=#d5e8d4;strokeColor=#82b366;" parent="1" vertex="1">
          <mxGeometry x="480" y="420" width="50" height="50" as="geometry" />
        </mxCell>
        <mxCell id="4Jh9RYMsEegQv2k9eJxr-30" value="" style="rounded=0;whiteSpace=wrap;html=1;fillColor=#d5e8d4;strokeColor=#82b366;" parent="1" vertex="1">
          <mxGeometry x="530" y="420" width="50" height="50" as="geometry" />
        </mxCell>
        <mxCell id="4Jh9RYMsEegQv2k9eJxr-31" value="" style="rounded=0;whiteSpace=wrap;html=1;fillColor=#d5e8d4;strokeColor=#82b366;" parent="1" vertex="1">
          <mxGeometry x="690" y="490" width="40" height="40" as="geometry" />
        </mxCell>
        <mxCell id="4Jh9RYMsEegQv2k9eJxr-32" value="" style="rounded=0;whiteSpace=wrap;html=1;fillColor=#d5e8d4;strokeColor=#82b366;" parent="1" vertex="1">
          <mxGeometry x="810" y="490" width="40" height="40" as="geometry" />
        </mxCell>
        <mxCell id="4Jh9RYMsEegQv2k9eJxr-34" value="" style="rounded=0;whiteSpace=wrap;html=1;fillColor=#d5e8d4;strokeColor=#82b366;" parent="1" vertex="1">
          <mxGeometry x="850" y="490" width="40" height="40" as="geometry" />
        </mxCell>
        <mxCell id="4Jh9RYMsEegQv2k9eJxr-35" value="" style="rounded=0;whiteSpace=wrap;html=1;fillColor=#e1d5e7;strokeColor=#9673a6;" parent="1" vertex="1">
          <mxGeometry x="1130" y="430" width="170" height="40" as="geometry" />
        </mxCell>
        <mxCell id="4Jh9RYMsEegQv2k9eJxr-36" value="" style="rounded=0;whiteSpace=wrap;html=1;fillColor=#d5e8d4;strokeColor=#82b366;" parent="1" vertex="1">
          <mxGeometry x="570" y="344" width="30" height="50" as="geometry" />
        </mxCell>
        <mxCell id="4Jh9RYMsEegQv2k9eJxr-37" value="" style="rounded=0;whiteSpace=wrap;html=1;fillColor=#d5e8d4;strokeColor=#82b366;" parent="1" vertex="1">
          <mxGeometry x="525" y="330" width="40" height="40" as="geometry" />
        </mxCell>
        <mxCell id="4Jh9RYMsEegQv2k9eJxr-38" value="" style="rounded=0;whiteSpace=wrap;html=1;rotation=90;fillColor=#d5e8d4;strokeColor=#82b366;" parent="1" vertex="1">
          <mxGeometry x="478.25" y="328.75" width="40" height="42.5" as="geometry" />
        </mxCell>
        <mxCell id="4Jh9RYMsEegQv2k9eJxr-39" value="" style="rounded=0;whiteSpace=wrap;html=1;rotation=0;fillColor=#d5e8d4;strokeColor=#82b366;" parent="1" vertex="1">
          <mxGeometry x="431" y="330" width="39" height="50" as="geometry" />
        </mxCell>
        <mxCell id="4Jh9RYMsEegQv2k9eJxr-40" value="" style="rounded=0;whiteSpace=wrap;html=1;rotation=90;fillColor=#d5e8d4;strokeColor=#82b366;" parent="1" vertex="1">
          <mxGeometry x="535" y="575" width="40" height="50" as="geometry" />
        </mxCell>
        <mxCell id="4Jh9RYMsEegQv2k9eJxr-41" value="" style="rounded=0;whiteSpace=wrap;html=1;fillColor=#d5e8d4;rotation=90;strokeColor=#82b366;" parent="1" vertex="1">
          <mxGeometry x="485" y="575" width="40" height="50" as="geometry" />
        </mxCell>
        <mxCell id="4Jh9RYMsEegQv2k9eJxr-42" value="" style="rounded=0;whiteSpace=wrap;html=1;rotation=90;fillColor=#d5e8d4;strokeColor=#82b366;" parent="1" vertex="1">
          <mxGeometry x="485" y="625" width="40" height="50" as="geometry" />
        </mxCell>
        <mxCell id="4Jh9RYMsEegQv2k9eJxr-43" value="" style="rounded=0;whiteSpace=wrap;html=1;rotation=90;fillColor=#d5e8d4;strokeColor=#82b366;" parent="1" vertex="1">
          <mxGeometry x="535" y="625" width="40" height="50" as="geometry" />
        </mxCell>
        <mxCell id="4Jh9RYMsEegQv2k9eJxr-44" value="" style="rounded=0;whiteSpace=wrap;html=1;rotation=90;fillColor=#d5e8d4;strokeColor=#82b366;" parent="1" vertex="1">
          <mxGeometry x="512.82" y="552.57" width="21.93" height="32.93" as="geometry" />
        </mxCell>
        <mxCell id="4Jh9RYMsEegQv2k9eJxr-45" value="" style="rounded=0;whiteSpace=wrap;html=1;rotation=90;fillColor=#d5e8d4;strokeColor=#82b366;" parent="1" vertex="1">
          <mxGeometry x="542.75" y="465.75" width="32.5" height="42" as="geometry" />
        </mxCell>
        <mxCell id="4Jh9RYMsEegQv2k9eJxr-46" value="" style="rounded=0;whiteSpace=wrap;html=1;rotation=-180;fillColor=#d5e8d4;strokeColor=#82b366;" parent="1" vertex="1">
          <mxGeometry x="475" y="470" width="40" height="35" as="geometry" />
        </mxCell>
        <mxCell id="4Jh9RYMsEegQv2k9eJxr-47" value="" style="rounded=0;whiteSpace=wrap;html=1;fillColor=#d5e8d4;rotation=90;strokeColor=#82b366;" parent="1" vertex="1">
          <mxGeometry x="350" y="537.5" width="32.5" height="52.5" as="geometry" />
        </mxCell>
        <mxCell id="4Jh9RYMsEegQv2k9eJxr-49" value="" style="rounded=0;whiteSpace=wrap;html=1;rotation=-180;fillColor=#d5e8d4;strokeColor=#82b366;" parent="1" vertex="1">
          <mxGeometry x="430" y="470" width="45" height="35" as="geometry" />
        </mxCell>
        <mxCell id="4Jh9RYMsEegQv2k9eJxr-50" value="" style="rounded=0;whiteSpace=wrap;html=1;fillColor=#d5e8d4;strokeColor=#82b366;" parent="1" vertex="1">
          <mxGeometry x="1210" y="360" width="30" height="70" as="geometry" />
        </mxCell>
        <mxCell id="4Jh9RYMsEegQv2k9eJxr-51" value="" style="rounded=0;whiteSpace=wrap;html=1;rotation=90;fillColor=#d5e8d4;strokeColor=#82b366;" parent="1" vertex="1">
          <mxGeometry x="1137.5" y="332.5" width="49" height="45" as="geometry" />
        </mxCell>
        <mxCell id="4Jh9RYMsEegQv2k9eJxr-52" value="37-624" style="text;html=1;strokeColor=none;fillColor=none;align=center;verticalAlign=middle;whiteSpace=wrap;rounded=0;" parent="1" vertex="1">
          <mxGeometry x="475" y="380" width="60" height="30" as="geometry" />
        </mxCell>
        <mxCell id="4Jh9RYMsEegQv2k9eJxr-53" value="37-638" style="text;html=1;strokeColor=none;fillColor=none;align=center;verticalAlign=middle;whiteSpace=wrap;rounded=0;" parent="1" vertex="1">
          <mxGeometry x="698" y="404.13" width="60" height="30" as="geometry" />
        </mxCell>
        <mxCell id="4Jh9RYMsEegQv2k9eJxr-54" value="&lt;font style=&quot;font-size: 17px;&quot;&gt;Solarium&lt;/font&gt;" style="text;html=1;strokeColor=none;fillColor=none;align=center;verticalAlign=middle;whiteSpace=wrap;rounded=0;" parent="1" vertex="1">
          <mxGeometry x="789" y="608" width="60" height="30" as="geometry" />
        </mxCell>
        <mxCell id="4Jh9RYMsEegQv2k9eJxr-55" value="37-602" style="text;html=1;strokeColor=none;fillColor=none;align=center;verticalAlign=middle;whiteSpace=wrap;rounded=0;" parent="1" vertex="1">
          <mxGeometry x="411" y="517.69" width="60" height="30" as="geometry" />
        </mxCell>
        <mxCell id="4Jh9RYMsEegQv2k9eJxr-56" value="37-602b" style="text;html=1;strokeColor=none;fillColor=none;align=center;verticalAlign=middle;whiteSpace=wrap;rounded=0;" parent="1" vertex="1">
          <mxGeometry x="403" y="580" width="60" height="30" as="geometry" />
        </mxCell>
        <mxCell id="4Jh9RYMsEegQv2k9eJxr-63" value="37-664k" style="text;html=1;strokeColor=none;fillColor=none;align=center;verticalAlign=middle;whiteSpace=wrap;rounded=0;" parent="1" vertex="1">
          <mxGeometry x="1225" y="507.00000000000006" width="60" height="30" as="geometry" />
        </mxCell>
        <mxCell id="4Jh9RYMsEegQv2k9eJxr-64" value="37-626a" style="text;html=1;strokeColor=none;fillColor=none;align=center;verticalAlign=middle;whiteSpace=wrap;rounded=0;" parent="1" vertex="1">
          <mxGeometry x="1140" y="385" width="60" height="30" as="geometry" />
        </mxCell>
        <mxCell id="4Jh9RYMsEegQv2k9eJxr-98" value="&lt;h1&gt;&lt;span style=&quot;background-color: initial; font-size: 12px;&quot;&gt;Legend:&lt;/span&gt;&lt;/h1&gt;" style="text;html=1;spacing=5;spacingTop=-20;whiteSpace=wrap;overflow=hidden;rounded=0;" parent="1" vertex="1">
          <mxGeometry x="337.5" y="667" width="62.5" height="39" as="geometry" />
        </mxCell>
        <mxCell id="4Jh9RYMsEegQv2k9eJxr-117" value="" style="rounded=0;whiteSpace=wrap;html=1;fillColor=#d5e8d4;strokeColor=#82b366;" parent="1" vertex="1">
          <mxGeometry x="1210" y="540" width="40" height="40" as="geometry" />
        </mxCell>
        <mxCell id="4Jh9RYMsEegQv2k9eJxr-141" value="" style="rounded=0;whiteSpace=wrap;html=1;rotation=90;fillColor=#d5e8d4;strokeColor=#82b366;" parent="1" vertex="1">
          <mxGeometry x="547.19" y="547.69" width="39.39" height="25.25" as="geometry" />
        </mxCell>
        <mxCell id="4Jh9RYMsEegQv2k9eJxr-150" value="Ty&#39;Shauna" style="text;html=1;strokeColor=none;fillColor=none;align=center;verticalAlign=middle;whiteSpace=wrap;rounded=0;" parent="1" vertex="1">
          <mxGeometry x="1137.5" y="422.49999999999994" width="60" height="55" as="geometry" />
        </mxCell>
        <mxCell id="4Jh9RYMsEegQv2k9eJxr-151" value="" style="rounded=0;whiteSpace=wrap;html=1;rotation=90;" parent="1" vertex="1">
          <mxGeometry x="1219.62" y="350.88" width="100.25" height="58.5" as="geometry" />
        </mxCell>
        <mxCell id="4Jh9RYMsEegQv2k9eJxr-152" value="Mens&lt;div&gt;Bathroom&lt;/div&gt;" style="text;html=1;strokeColor=none;fillColor=none;align=center;verticalAlign=middle;whiteSpace=wrap;rounded=0;" parent="1" vertex="1">
          <mxGeometry x="1240" y="361.68" width="60" height="30" as="geometry" />
        </mxCell>
        <mxCell id="4Jh9RYMsEegQv2k9eJxr-153" value="" style="rounded=0;whiteSpace=wrap;html=1;rotation=90;" parent="1" vertex="1">
          <mxGeometry x="351" y="340" width="89" height="70" as="geometry" />
        </mxCell>
        <mxCell id="4Jh9RYMsEegQv2k9eJxr-154" value="Womens&lt;div&gt;Bathroom&lt;/div&gt;" style="text;html=1;strokeColor=none;fillColor=none;align=center;verticalAlign=middle;whiteSpace=wrap;rounded=0;" parent="1" vertex="1">
          <mxGeometry x="365.5" y="361.68" width="60" height="30" as="geometry" />
        </mxCell>
        <mxCell id="4Jh9RYMsEegQv2k9eJxr-155" value="" style="rounded=0;whiteSpace=wrap;html=1;rotation=90;" parent="1" vertex="1">
          <mxGeometry x="1011.75" y="391.75" width="103.25" height="54.75" as="geometry" />
        </mxCell>
        <mxCell id="oSpyv27FBxu9WC1x9Rb_-17" value="" style="rounded=0;whiteSpace=wrap;html=1;rotation=90;fillColor=#f5f5f5;fontColor=#333333;strokeColor=#666666;" vertex="1" parent="1">
          <mxGeometry x="970.12" y="399.12" width="103" height="40" as="geometry" />
        </mxCell>
        <mxCell id="4Jh9RYMsEegQv2k9eJxr-156" value="Coffee&lt;div&gt;Nook&lt;/div&gt;" style="text;html=1;strokeColor=none;fillColor=none;align=center;verticalAlign=middle;whiteSpace=wrap;rounded=0;" parent="1" vertex="1">
          <mxGeometry x="1035.88" y="403" width="60" height="30" as="geometry" />
        </mxCell>
        <mxCell id="4Jh9RYMsEegQv2k9eJxr-157" value="" style="rounded=0;whiteSpace=wrap;html=1;fillColor=#f5f5f5;fontColor=#333333;strokeColor=#666666;" parent="1" vertex="1">
          <mxGeometry x="1210" y="430" width="90" height="40" as="geometry" />
        </mxCell>
        <mxCell id="4Jh9RYMsEegQv2k9eJxr-161" value="" style="group" parent="1" vertex="1" connectable="0">
          <mxGeometry x="1255" y="309" width="35" height="41" as="geometry" />
        </mxCell>
        <mxCell id="4Jh9RYMsEegQv2k9eJxr-158" value="" style="endArrow=none;html=1;rounded=0;" parent="4Jh9RYMsEegQv2k9eJxr-161" edge="1">
          <mxGeometry width="50" height="50" relative="1" as="geometry">
            <mxPoint x="15" y="41" as="sourcePoint" />
            <mxPoint x="35" y="21" as="targetPoint" />
          </mxGeometry>
        </mxCell>
        <mxCell id="4Jh9RYMsEegQv2k9eJxr-160" value="" style="verticalLabelPosition=bottom;verticalAlign=top;html=1;shape=mxgraph.basic.arc;startAngle=0.4825630597511179;endAngle=0.7337332955960307;" parent="4Jh9RYMsEegQv2k9eJxr-161" vertex="1">
          <mxGeometry width="28" height="40" as="geometry" />
        </mxCell>
        <mxCell id="4Jh9RYMsEegQv2k9eJxr-162" value="" style="group" parent="1" vertex="1" connectable="0">
          <mxGeometry x="376" y="310" width="35" height="41" as="geometry" />
        </mxCell>
        <mxCell id="4Jh9RYMsEegQv2k9eJxr-163" value="" style="endArrow=none;html=1;rounded=0;" parent="4Jh9RYMsEegQv2k9eJxr-162" edge="1">
          <mxGeometry width="50" height="50" relative="1" as="geometry">
            <mxPoint x="15" y="41" as="sourcePoint" />
            <mxPoint x="35" y="21" as="targetPoint" />
          </mxGeometry>
        </mxCell>
        <mxCell id="4Jh9RYMsEegQv2k9eJxr-164" value="" style="verticalLabelPosition=bottom;verticalAlign=top;html=1;shape=mxgraph.basic.arc;startAngle=0.4825630597511179;endAngle=0.7337332955960307;" parent="4Jh9RYMsEegQv2k9eJxr-162" vertex="1">
          <mxGeometry width="28" height="40" as="geometry" />
        </mxCell>
        <mxCell id="4Jh9RYMsEegQv2k9eJxr-165" value="Erin&lt;div&gt;Kara&lt;/div&gt;" style="text;html=1;strokeColor=none;fillColor=none;align=center;verticalAlign=middle;whiteSpace=wrap;rounded=0;" parent="1" vertex="1">
          <mxGeometry x="573" y="597.5" width="70" height="55" as="geometry" />
        </mxCell>
        <mxCell id="4Jh9RYMsEegQv2k9eJxr-166" value="Scott Hughes" style="text;html=1;strokeColor=none;fillColor=none;align=center;verticalAlign=middle;whiteSpace=wrap;rounded=0;" parent="1" vertex="1">
          <mxGeometry x="360.5" y="598" width="70" height="55" as="geometry" />
        </mxCell>
        <mxCell id="4Jh9RYMsEegQv2k9eJxr-167" value="To emergency exit (stairs)" style="text;html=1;strokeColor=none;fillColor=none;align=center;verticalAlign=middle;whiteSpace=wrap;rounded=0;" parent="1" vertex="1">
          <mxGeometry x="380" y="262" width="83" height="55" as="geometry" />
        </mxCell>
        <mxCell id="4Jh9RYMsEegQv2k9eJxr-168" value="" style="endArrow=classic;html=1;rounded=0;" parent="1" edge="1">
          <mxGeometry width="50" height="50" relative="1" as="geometry">
            <mxPoint x="350.5" y="439.23" as="sourcePoint" />
            <mxPoint x="403" y="439.25" as="targetPoint" />
          </mxGeometry>
        </mxCell>
        <mxCell id="4Jh9RYMsEegQv2k9eJxr-169" value="" style="endArrow=none;html=1;rounded=0;" parent="1" edge="1">
          <mxGeometry width="50" height="50" relative="1" as="geometry">
            <mxPoint x="351" y="280" as="sourcePoint" />
            <mxPoint x="350" y="440" as="targetPoint" />
          </mxGeometry>
        </mxCell>
        <mxCell id="4Jh9RYMsEegQv2k9eJxr-170" value="" style="endArrow=none;html=1;rounded=0;" parent="1" edge="1">
          <mxGeometry width="50" height="50" relative="1" as="geometry">
            <mxPoint x="377.5" y="280" as="sourcePoint" />
            <mxPoint x="351" y="280" as="targetPoint" />
          </mxGeometry>
        </mxCell>
        <mxCell id="4Jh9RYMsEegQv2k9eJxr-171" value="To emergency exit (stairs)" style="text;html=1;strokeColor=none;fillColor=none;align=center;verticalAlign=middle;whiteSpace=wrap;rounded=0;" parent="1" vertex="1">
          <mxGeometry x="1181.5" y="263" width="83" height="55" as="geometry" />
        </mxCell>
        <mxCell id="4Jh9RYMsEegQv2k9eJxr-172" value="" style="endArrow=classic;html=1;rounded=0;" parent="1" edge="1">
          <mxGeometry width="50" height="50" relative="1" as="geometry">
            <mxPoint x="1264" y="285" as="sourcePoint" />
            <mxPoint x="1294" y="285" as="targetPoint" />
          </mxGeometry>
        </mxCell>
        <mxCell id="4Jh9RYMsEegQv2k9eJxr-173" value="" style="rounded=0;whiteSpace=wrap;html=1;rotation=90;" parent="1" vertex="1">
          <mxGeometry x="1028.5" y="304.75" width="34.5" height="89.5" as="geometry" />
        </mxCell>
        <mxCell id="4Jh9RYMsEegQv2k9eJxr-174" value="Elevators" style="text;html=1;strokeColor=none;fillColor=none;align=center;verticalAlign=middle;whiteSpace=wrap;rounded=0;" parent="1" vertex="1">
          <mxGeometry x="1015" y="335" width="60" height="30" as="geometry" />
        </mxCell>
        <mxCell id="oSpyv27FBxu9WC1x9Rb_-3" value="" style="rounded=0;whiteSpace=wrap;html=1;rotation=-180;fillColor=#d5e8d4;strokeColor=#82b366;" vertex="1" parent="1">
          <mxGeometry x="385" y="470" width="45" height="35" as="geometry" />
        </mxCell>
        <mxCell id="oSpyv27FBxu9WC1x9Rb_-4" value="" style="rounded=0;whiteSpace=wrap;html=1;fillColor=none;" vertex="1" parent="1">
          <mxGeometry x="870" y="420" width="80" height="70" as="geometry" />
        </mxCell>
        <mxCell id="4Jh9RYMsEegQv2k9eJxr-5" value="" style="rounded=0;whiteSpace=wrap;html=1;fillColor=none;strokeWidth=3;" parent="1" vertex="1">
          <mxGeometry x="430" y="330" width="170" height="140" as="geometry" />
        </mxCell>
        <mxCell id="4Jh9RYMsEegQv2k9eJxr-9" value="" style="rounded=0;whiteSpace=wrap;html=1;fillColor=none;strokeWidth=3;" parent="1" vertex="1">
          <mxGeometry x="650" y="330" width="220" height="160" as="geometry" />
        </mxCell>
        <mxCell id="4Jh9RYMsEegQv2k9eJxr-6" value="" style="rounded=0;whiteSpace=wrap;html=1;fillColor=none;strokeWidth=3;" parent="1" vertex="1">
          <mxGeometry x="340" y="470" width="240" height="110" as="geometry" />
        </mxCell>
        <mxCell id="oSpyv27FBxu9WC1x9Rb_-6" value="" style="rounded=0;whiteSpace=wrap;html=1;strokeWidth=3;fillColor=none;" vertex="1" parent="1">
          <mxGeometry x="460" y="580" width="120" height="90" as="geometry" />
        </mxCell>
        <mxCell id="oSpyv27FBxu9WC1x9Rb_-9" value="" style="rounded=0;whiteSpace=wrap;html=1;fillColor=#dae8fc;strokeColor=#6c8ebf;" vertex="1" parent="1">
          <mxGeometry x="640" y="578" width="60" height="90" as="geometry" />
        </mxCell>
        <mxCell id="oSpyv27FBxu9WC1x9Rb_-10" value="Christina&lt;div&gt;Eilers&lt;/div&gt;" style="text;html=1;strokeColor=none;fillColor=none;align=center;verticalAlign=middle;whiteSpace=wrap;rounded=0;" vertex="1" parent="1">
          <mxGeometry x="633" y="597.5" width="70" height="55" as="geometry" />
        </mxCell>
        <mxCell id="oSpyv27FBxu9WC1x9Rb_-11" value="" style="rounded=0;whiteSpace=wrap;html=1;fillColor=#dae8fc;strokeColor=#6c8ebf;" vertex="1" parent="1">
          <mxGeometry x="700" y="578" width="60" height="90" as="geometry" />
        </mxCell>
        <mxCell id="oSpyv27FBxu9WC1x9Rb_-12" value="Mark&lt;div&gt;Vogels-berger&lt;/div&gt;" style="text;html=1;strokeColor=none;fillColor=none;align=center;verticalAlign=middle;whiteSpace=wrap;rounded=0;" vertex="1" parent="1">
          <mxGeometry x="695" y="597.5" width="70" height="55" as="geometry" />
        </mxCell>
        <mxCell id="oSpyv27FBxu9WC1x9Rb_-13" value="" style="rounded=0;whiteSpace=wrap;html=1;fillColor=none;strokeWidth=3;" vertex="1" parent="1">
          <mxGeometry x="1130" y="331" width="110" height="100" as="geometry" />
        </mxCell>
        <mxCell id="oSpyv27FBxu9WC1x9Rb_-14" value="" style="rounded=0;whiteSpace=wrap;html=1;fillColor=none;" vertex="1" parent="1">
          <mxGeometry x="870" y="330" width="80" height="90" as="geometry" />
        </mxCell>
        <mxCell id="oSpyv27FBxu9WC1x9Rb_-15" value="Conference&lt;div&gt;room&lt;/div&gt;" style="text;html=1;strokeColor=none;fillColor=none;align=center;verticalAlign=middle;whiteSpace=wrap;rounded=0;" vertex="1" parent="1">
          <mxGeometry x="880" y="361" width="60" height="30" as="geometry" />
        </mxCell>
        <mxCell id="oSpyv27FBxu9WC1x9Rb_-16" value="Kitchen" style="text;html=1;strokeColor=none;fillColor=none;align=center;verticalAlign=middle;whiteSpace=wrap;rounded=0;" vertex="1" parent="1">
          <mxGeometry x="880" y="441" width="60" height="30" as="geometry" />
        </mxCell>
        <mxCell id="oSpyv27FBxu9WC1x9Rb_-18" value="" style="rounded=0;whiteSpace=wrap;html=1;fillColor=#dae8fc;strokeColor=#6c8ebf;" vertex="1" parent="1">
          <mxGeometry x="880" y="578" width="60" height="90" as="geometry" />
        </mxCell>
        <mxCell id="oSpyv27FBxu9WC1x9Rb_-19" value="Mike&lt;div&gt;McDonald&lt;/div&gt;" style="text;html=1;strokeColor=none;fillColor=none;align=center;verticalAlign=middle;whiteSpace=wrap;rounded=0;" vertex="1" parent="1">
          <mxGeometry x="876" y="595.5" width="70" height="55" as="geometry" />
        </mxCell>
        <mxCell id="oSpyv27FBxu9WC1x9Rb_-33" value="" style="rounded=0;whiteSpace=wrap;html=1;fillColor=#dae8fc;strokeColor=#6c8ebf;" vertex="1" parent="1">
          <mxGeometry x="940" y="578" width="60" height="90" as="geometry" />
        </mxCell>
        <mxCell id="oSpyv27FBxu9WC1x9Rb_-34" value="Anna&lt;div&gt;Frebel&lt;/div&gt;" style="text;html=1;strokeColor=none;fillColor=none;align=center;verticalAlign=middle;whiteSpace=wrap;rounded=0;" vertex="1" parent="1">
          <mxGeometry x="936" y="595.5" width="70" height="55" as="geometry" />
        </mxCell>
        <mxCell id="oSpyv27FBxu9WC1x9Rb_-35" value="" style="rounded=0;whiteSpace=wrap;html=1;fillColor=#dae8fc;strokeColor=#6c8ebf;" vertex="1" parent="1">
          <mxGeometry x="1000" y="578" width="60" height="90" as="geometry" />
        </mxCell>
        <mxCell id="oSpyv27FBxu9WC1x9Rb_-36" value="Kiyoshi&lt;div&gt;Masui&lt;/div&gt;" style="text;html=1;strokeColor=none;fillColor=none;align=center;verticalAlign=middle;whiteSpace=wrap;rounded=0;" vertex="1" parent="1">
          <mxGeometry x="996" y="595.5" width="70" height="55" as="geometry" />
        </mxCell>
        <mxCell id="oSpyv27FBxu9WC1x9Rb_-37" value="" style="rounded=0;whiteSpace=wrap;html=1;fillColor=#f5f5f5;strokeColor=#666666;fontColor=#333333;" vertex="1" parent="1">
          <mxGeometry x="1060" y="578" width="60" height="90" as="geometry" />
        </mxCell>
        <mxCell id="oSpyv27FBxu9WC1x9Rb_-38" value="Visitor&lt;div&gt;Office&lt;/div&gt;" style="text;html=1;strokeColor=none;fillColor=none;align=center;verticalAlign=middle;whiteSpace=wrap;rounded=0;" vertex="1" parent="1">
          <mxGeometry x="1056" y="595.5" width="70" height="55" as="geometry" />
        </mxCell>
        <mxCell id="oSpyv27FBxu9WC1x9Rb_-39" value="" style="rounded=0;whiteSpace=wrap;html=1;fillColor=#fff2cc;strokeColor=#d6b656;" vertex="1" parent="1">
          <mxGeometry x="1120" y="578" width="60" height="90" as="geometry" />
        </mxCell>
        <mxCell id="oSpyv27FBxu9WC1x9Rb_-41" value="" style="rounded=0;whiteSpace=wrap;html=1;fillColor=#dae8fc;strokeColor=#6c8ebf;" vertex="1" parent="1">
          <mxGeometry x="1180" y="578" width="120" height="90" as="geometry" />
        </mxCell>
        <mxCell id="oSpyv27FBxu9WC1x9Rb_-42" value="Jackie&lt;div&gt;Hewitt&lt;/div&gt;" style="text;html=1;strokeColor=none;fillColor=none;align=center;verticalAlign=middle;whiteSpace=wrap;rounded=0;" vertex="1" parent="1">
          <mxGeometry x="1206" y="598" width="70" height="55" as="geometry" />
        </mxCell>
        <mxCell id="4Jh9RYMsEegQv2k9eJxr-12" value="" style="rounded=0;whiteSpace=wrap;html=1;fillColor=none;strokeWidth=3;" parent="1" vertex="1">
          <mxGeometry x="1210" y="471" width="90" height="109" as="geometry" />
        </mxCell>
        <mxCell id="oSpyv27FBxu9WC1x9Rb_-21" value="Emily&amp;nbsp;&lt;div&gt;Pass&lt;div&gt;+&lt;br&gt;&lt;div&gt;Nathaniel Starkman&lt;/div&gt;&lt;/div&gt;&lt;/div&gt;" style="text;html=1;strokeColor=none;fillColor=none;align=center;verticalAlign=middle;whiteSpace=wrap;rounded=0;" vertex="1" parent="1">
          <mxGeometry x="1116" y="596" width="70" height="55" as="geometry" />
        </mxCell>
        <mxCell id="oSpyv27FBxu9WC1x9Rb_-43" value="" style="rounded=0;whiteSpace=wrap;html=1;fillColor=#dae8fc;strokeColor=#6c8ebf;" vertex="1" parent="1">
          <mxGeometry x="341" y="181" width="69" height="80" as="geometry" />
        </mxCell>
        <mxCell id="oSpyv27FBxu9WC1x9Rb_-44" value="Lina&lt;div&gt;Necib&lt;/div&gt;" style="text;html=1;strokeColor=none;fillColor=none;align=center;verticalAlign=middle;whiteSpace=wrap;rounded=0;" vertex="1" parent="1">
          <mxGeometry x="340" y="193.5" width="70" height="55" as="geometry" />
        </mxCell>
        <mxCell id="oSpyv27FBxu9WC1x9Rb_-45" value="" style="rounded=0;whiteSpace=wrap;html=1;fillColor=#dae8fc;strokeColor=#6c8ebf;" vertex="1" parent="1">
          <mxGeometry x="410" y="181" width="65" height="80" as="geometry" />
        </mxCell>
        <mxCell id="oSpyv27FBxu9WC1x9Rb_-46" value="" style="rounded=0;whiteSpace=wrap;html=1;fillColor=#fff2cc;strokeColor=#d6b656;" vertex="1" parent="1">
          <mxGeometry x="475" y="181" width="55" height="80" as="geometry" />
        </mxCell>
        <mxCell id="oSpyv27FBxu9WC1x9Rb_-47" value="" style="rounded=0;whiteSpace=wrap;html=1;fillColor=#dae8fc;strokeColor=#6c8ebf;" vertex="1" parent="1">
          <mxGeometry x="530" y="181" width="74" height="80" as="geometry" />
        </mxCell>
        <mxCell id="oSpyv27FBxu9WC1x9Rb_-48" value="" style="rounded=0;whiteSpace=wrap;html=1;fillColor=#dae8fc;strokeColor=#6c8ebf;" vertex="1" parent="1">
          <mxGeometry x="604" y="181" width="60" height="80" as="geometry" />
        </mxCell>
        <mxCell id="oSpyv27FBxu9WC1x9Rb_-49" value="" style="rounded=0;whiteSpace=wrap;html=1;fillColor=#fff2cc;strokeColor=#d6b656;" vertex="1" parent="1">
          <mxGeometry x="664" y="181" width="60" height="80" as="geometry" />
        </mxCell>
        <mxCell id="oSpyv27FBxu9WC1x9Rb_-50" value="" style="rounded=0;whiteSpace=wrap;html=1;fillColor=#e1d5e7;strokeColor=#9673a6;" vertex="1" parent="1">
          <mxGeometry x="724" y="181" width="60" height="80" as="geometry" />
        </mxCell>
        <mxCell id="oSpyv27FBxu9WC1x9Rb_-51" value="" style="rounded=0;whiteSpace=wrap;html=1;fillColor=#fff2cc;strokeColor=#d6b656;" vertex="1" parent="1">
          <mxGeometry x="784" y="181" width="60" height="80" as="geometry" />
        </mxCell>
        <mxCell id="oSpyv27FBxu9WC1x9Rb_-52" value="" style="rounded=0;whiteSpace=wrap;html=1;fillColor=#dae8fc;strokeColor=#6c8ebf;" vertex="1" parent="1">
          <mxGeometry x="844" y="181" width="69" height="80" as="geometry" />
        </mxCell>
        <mxCell id="oSpyv27FBxu9WC1x9Rb_-53" value="" style="rounded=0;whiteSpace=wrap;html=1;fillColor=#fff2cc;strokeColor=#d6b656;" vertex="1" parent="1">
          <mxGeometry x="913" y="181" width="69" height="80" as="geometry" />
        </mxCell>
        <mxCell id="oSpyv27FBxu9WC1x9Rb_-54" value="" style="rounded=0;whiteSpace=wrap;html=1;fillColor=#dae8fc;strokeColor=#6c8ebf;" vertex="1" parent="1">
          <mxGeometry x="982" y="181" width="68" height="80" as="geometry" />
        </mxCell>
        <mxCell id="oSpyv27FBxu9WC1x9Rb_-55" value="" style="rounded=0;whiteSpace=wrap;html=1;fillColor=#dae8fc;strokeColor=#6c8ebf;" vertex="1" parent="1">
          <mxGeometry x="1050" y="181" width="61" height="80" as="geometry" />
        </mxCell>
        <mxCell id="oSpyv27FBxu9WC1x9Rb_-56" value="" style="rounded=0;whiteSpace=wrap;html=1;fillColor=#fff2cc;strokeColor=#d6b656;" vertex="1" parent="1">
          <mxGeometry x="1110" y="181" width="60" height="80" as="geometry" />
        </mxCell>
        <mxCell id="oSpyv27FBxu9WC1x9Rb_-57" value="" style="rounded=0;whiteSpace=wrap;html=1;fillColor=#fff2cc;strokeColor=#d6b656;" vertex="1" parent="1">
          <mxGeometry x="1170" y="181" width="61" height="80" as="geometry" />
        </mxCell>
        <mxCell id="oSpyv27FBxu9WC1x9Rb_-58" value="" style="rounded=0;whiteSpace=wrap;html=1;fillColor=#dae8fc;strokeColor=#6c8ebf;" vertex="1" parent="1">
          <mxGeometry x="1230" y="181" width="68" height="80" as="geometry" />
        </mxCell>
        <mxCell id="oSpyv27FBxu9WC1x9Rb_-60" value="Sarah&lt;div&gt;Millholland&lt;/div&gt;" style="text;html=1;strokeColor=none;fillColor=none;align=center;verticalAlign=middle;whiteSpace=wrap;rounded=0;" vertex="1" parent="1">
          <mxGeometry x="408" y="193.5" width="70" height="55" as="geometry" />
        </mxCell>
        <mxCell id="oSpyv27FBxu9WC1x9Rb_-61" value="Kenzie&lt;div&gt;Nimmo&lt;/div&gt;" style="text;html=1;strokeColor=none;fillColor=none;align=center;verticalAlign=middle;whiteSpace=wrap;rounded=0;" vertex="1" parent="1">
          <mxGeometry x="469" y="193.5" width="70" height="55" as="geometry" />
        </mxCell>
        <mxCell id="oSpyv27FBxu9WC1x9Rb_-62" value="Ed&lt;div&gt;Bertschinger&lt;/div&gt;" style="text;html=1;strokeColor=none;fillColor=none;align=center;verticalAlign=middle;whiteSpace=wrap;rounded=0;" vertex="1" parent="1">
          <mxGeometry x="533" y="193.5" width="70" height="55" as="geometry" />
        </mxCell>
        <mxCell id="oSpyv27FBxu9WC1x9Rb_-63" value="Paul&lt;div&gt;Schechter&lt;/div&gt;" style="text;html=1;strokeColor=none;fillColor=none;align=center;verticalAlign=middle;whiteSpace=wrap;rounded=0;" vertex="1" parent="1">
          <mxGeometry x="599" y="193.5" width="70" height="55" as="geometry" />
        </mxCell>
        <mxCell id="oSpyv27FBxu9WC1x9Rb_-64" value="Juliana&lt;div&gt;Garcia&lt;/div&gt;&lt;div&gt;-Mejia&lt;/div&gt;" style="text;html=1;strokeColor=none;fillColor=none;align=center;verticalAlign=middle;whiteSpace=wrap;rounded=0;" vertex="1" parent="1">
          <mxGeometry x="658" y="193.5" width="70" height="55" as="geometry" />
        </mxCell>
        <mxCell id="oSpyv27FBxu9WC1x9Rb_-65" value="Erika&lt;div&gt;Reinfeld&lt;/div&gt;" style="text;html=1;strokeColor=none;fillColor=none;align=center;verticalAlign=middle;whiteSpace=wrap;rounded=0;" vertex="1" parent="1">
          <mxGeometry x="720" y="193.5" width="70" height="55" as="geometry" />
        </mxCell>
        <mxCell id="oSpyv27FBxu9WC1x9Rb_-66" value="Paul&lt;div&gt;Draghis&lt;/div&gt;" style="text;html=1;strokeColor=none;fillColor=none;align=center;verticalAlign=middle;whiteSpace=wrap;rounded=0;" vertex="1" parent="1">
          <mxGeometry x="779" y="193.5" width="70" height="55" as="geometry" />
        </mxCell>
        <mxCell id="oSpyv27FBxu9WC1x9Rb_-67" value="John&lt;div&gt;Richardson&lt;/div&gt;" style="text;html=1;strokeColor=none;fillColor=none;align=center;verticalAlign=middle;whiteSpace=wrap;rounded=0;" vertex="1" parent="1">
          <mxGeometry x="844" y="193.5" width="70" height="55" as="geometry" />
        </mxCell>
        <mxCell id="oSpyv27FBxu9WC1x9Rb_-68" value="Riccardo&lt;div&gt;Arcodia&lt;/div&gt;" style="text;html=1;strokeColor=none;fillColor=none;align=center;verticalAlign=middle;whiteSpace=wrap;rounded=0;" vertex="1" parent="1">
          <mxGeometry x="913" y="193.5" width="70" height="55" as="geometry" />
        </mxCell>
        <mxCell id="oSpyv27FBxu9WC1x9Rb_-69" value="Claude&lt;div&gt;Canizares&lt;/div&gt;" style="text;html=1;strokeColor=none;fillColor=none;align=center;verticalAlign=middle;whiteSpace=wrap;rounded=0;" vertex="1" parent="1">
          <mxGeometry x="982" y="193.5" width="70" height="55" as="geometry" />
        </mxCell>
        <mxCell id="oSpyv27FBxu9WC1x9Rb_-70" value="Kevin&lt;div&gt;Burdge&lt;/div&gt;" style="text;html=1;strokeColor=none;fillColor=none;align=center;verticalAlign=middle;whiteSpace=wrap;rounded=0;" vertex="1" parent="1">
          <mxGeometry x="1045" y="193.5" width="70" height="55" as="geometry" />
        </mxCell>
        <mxCell id="oSpyv27FBxu9WC1x9Rb_-71" value="Rohan&lt;div&gt;Naidu&lt;/div&gt;" style="text;html=1;strokeColor=none;fillColor=none;align=center;verticalAlign=middle;whiteSpace=wrap;rounded=0;" vertex="1" parent="1">
          <mxGeometry x="1105" y="193.5" width="70" height="55" as="geometry" />
        </mxCell>
        <mxCell id="oSpyv27FBxu9WC1x9Rb_-72" value="Xiaohui&lt;div&gt;Fan&lt;/div&gt;" style="text;html=1;strokeColor=none;fillColor=none;align=center;verticalAlign=middle;whiteSpace=wrap;rounded=0;" vertex="1" parent="1">
          <mxGeometry x="1165" y="193.5" width="70" height="55" as="geometry" />
        </mxCell>
        <mxCell id="oSpyv27FBxu9WC1x9Rb_-73" value="Andrew Vanderburg" style="text;html=1;strokeColor=none;fillColor=none;align=center;verticalAlign=middle;whiteSpace=wrap;rounded=0;" vertex="1" parent="1">
          <mxGeometry x="1230" y="193.5" width="70" height="55" as="geometry" />
        </mxCell>
        <mxCell id="oSpyv27FBxu9WC1x9Rb_-78" value="" style="group" vertex="1" connectable="0" parent="1">
          <mxGeometry x="739" y="475.8536585365855" width="22" height="28.439024390243787" as="geometry" />
        </mxCell>
        <mxCell id="oSpyv27FBxu9WC1x9Rb_-76" value="" style="endArrow=none;html=1;rounded=0;" edge="1" parent="oSpyv27FBxu9WC1x9Rb_-78">
          <mxGeometry width="50" height="50" relative="1" as="geometry">
            <mxPoint x="9.428571428571445" as="sourcePoint" />
            <mxPoint x="22" y="14.146341463414615" as="targetPoint" />
          </mxGeometry>
        </mxCell>
        <mxCell id="oSpyv27FBxu9WC1x9Rb_-77" value="" style="verticalLabelPosition=bottom;verticalAlign=top;html=1;shape=mxgraph.basic.arc;startAngle=0.4825630597511179;endAngle=0.7337332955960307;flipV=1;" vertex="1" parent="oSpyv27FBxu9WC1x9Rb_-78">
          <mxGeometry y="0.14634146341450105" width="17.6" height="28.292682926829265" as="geometry" />
        </mxCell>
        <mxCell id="oSpyv27FBxu9WC1x9Rb_-79" value="" style="group;rotation=-90;" vertex="1" connectable="0" parent="1">
          <mxGeometry x="588" y="401.8536585365855" width="22" height="28.439024390243787" as="geometry" />
        </mxCell>
        <mxCell id="oSpyv27FBxu9WC1x9Rb_-80" value="" style="endArrow=none;html=1;rounded=0;" edge="1" parent="oSpyv27FBxu9WC1x9Rb_-79">
          <mxGeometry width="50" height="50" relative="1" as="geometry">
            <mxPoint x="-3" y="16" as="sourcePoint" />
            <mxPoint x="11" y="3" as="targetPoint" />
          </mxGeometry>
        </mxCell>
        <mxCell id="oSpyv27FBxu9WC1x9Rb_-81" value="" style="verticalLabelPosition=bottom;verticalAlign=top;html=1;shape=mxgraph.basic.arc;startAngle=0.4825630597511179;endAngle=0.7337332955960307;flipV=1;rotation=-90;" vertex="1" parent="oSpyv27FBxu9WC1x9Rb_-79">
          <mxGeometry x="2" y="2" width="17.6" height="28.292682926829265" as="geometry" />
        </mxCell>
        <mxCell id="oSpyv27FBxu9WC1x9Rb_-82" value="" style="group;rotation=-90;" vertex="1" connectable="0" parent="1">
          <mxGeometry x="568" y="506.8536585365855" width="22" height="28.439024390243787" as="geometry" />
        </mxCell>
        <mxCell id="oSpyv27FBxu9WC1x9Rb_-83" value="" style="endArrow=none;html=1;rounded=0;" edge="1" parent="oSpyv27FBxu9WC1x9Rb_-82">
          <mxGeometry width="50" height="50" relative="1" as="geometry">
            <mxPoint x="-3" y="16" as="sourcePoint" />
            <mxPoint x="11" y="3" as="targetPoint" />
          </mxGeometry>
        </mxCell>
        <mxCell id="oSpyv27FBxu9WC1x9Rb_-84" value="" style="verticalLabelPosition=bottom;verticalAlign=top;html=1;shape=mxgraph.basic.arc;startAngle=0.4825630597511179;endAngle=0.7337332955960307;flipV=1;rotation=-90;" vertex="1" parent="oSpyv27FBxu9WC1x9Rb_-82">
          <mxGeometry x="2" y="2" width="17.6" height="28.292682926829265" as="geometry" />
        </mxCell>
        <mxCell id="oSpyv27FBxu9WC1x9Rb_-85" value="" style="group;rotation=-90;" vertex="1" connectable="0" parent="1">
          <mxGeometry x="939" y="436.8536585365855" width="22" height="28.439024390243787" as="geometry" />
        </mxCell>
        <mxCell id="oSpyv27FBxu9WC1x9Rb_-86" value="" style="endArrow=none;html=1;rounded=0;" edge="1" parent="oSpyv27FBxu9WC1x9Rb_-85">
          <mxGeometry width="50" height="50" relative="1" as="geometry">
            <mxPoint x="-3" y="16" as="sourcePoint" />
            <mxPoint x="11" y="3" as="targetPoint" />
          </mxGeometry>
        </mxCell>
        <mxCell id="oSpyv27FBxu9WC1x9Rb_-87" value="" style="verticalLabelPosition=bottom;verticalAlign=top;html=1;shape=mxgraph.basic.arc;startAngle=0.4825630597511179;endAngle=0.7337332955960307;flipV=1;rotation=-90;" vertex="1" parent="oSpyv27FBxu9WC1x9Rb_-85">
          <mxGeometry x="2" y="2" width="17.6" height="28.292682926829265" as="geometry" />
        </mxCell>
        <mxCell id="oSpyv27FBxu9WC1x9Rb_-88" value="" style="group;rotation=-90;" vertex="1" connectable="0" parent="1">
          <mxGeometry x="939" y="376.8536585365855" width="22" height="28.439024390243787" as="geometry" />
        </mxCell>
        <mxCell id="oSpyv27FBxu9WC1x9Rb_-89" value="" style="endArrow=none;html=1;rounded=0;" edge="1" parent="oSpyv27FBxu9WC1x9Rb_-88">
          <mxGeometry width="50" height="50" relative="1" as="geometry">
            <mxPoint x="-3" y="16" as="sourcePoint" />
            <mxPoint x="11" y="3" as="targetPoint" />
          </mxGeometry>
        </mxCell>
        <mxCell id="oSpyv27FBxu9WC1x9Rb_-90" value="" style="verticalLabelPosition=bottom;verticalAlign=top;html=1;shape=mxgraph.basic.arc;startAngle=0.4825630597511179;endAngle=0.7337332955960307;flipV=1;rotation=-90;" vertex="1" parent="oSpyv27FBxu9WC1x9Rb_-88">
          <mxGeometry x="2" y="2" width="17.6" height="28.292682926829265" as="geometry" />
        </mxCell>
        <mxCell id="oSpyv27FBxu9WC1x9Rb_-91" value="" style="group;rotation=90;" vertex="1" connectable="0" parent="1">
          <mxGeometry x="1199" y="506.8536585365855" width="22" height="28.439024390243787" as="geometry" />
        </mxCell>
        <mxCell id="oSpyv27FBxu9WC1x9Rb_-92" value="" style="endArrow=none;html=1;rounded=0;" edge="1" parent="oSpyv27FBxu9WC1x9Rb_-91">
          <mxGeometry width="50" height="50" relative="1" as="geometry">
            <mxPoint x="25" y="12" as="sourcePoint" />
            <mxPoint x="11" y="25" as="targetPoint" />
          </mxGeometry>
        </mxCell>
        <mxCell id="oSpyv27FBxu9WC1x9Rb_-93" value="" style="verticalLabelPosition=bottom;verticalAlign=top;html=1;shape=mxgraph.basic.arc;startAngle=0.4825630597511179;endAngle=0.7337332955960307;flipV=1;rotation=90;" vertex="1" parent="oSpyv27FBxu9WC1x9Rb_-91">
          <mxGeometry x="2" y="-2" width="17.6" height="28.292682926829265" as="geometry" />
        </mxCell>
        <mxCell id="oSpyv27FBxu9WC1x9Rb_-94" value="" style="rounded=0;whiteSpace=wrap;html=1;fillColor=#d5e8d4;strokeColor=#82b366;" vertex="1" parent="1">
          <mxGeometry x="409" y="681" width="40" height="20" as="geometry" />
        </mxCell>
        <mxCell id="oSpyv27FBxu9WC1x9Rb_-95" value="&lt;h1&gt;&lt;span style=&quot;background-color: initial; font-size: 12px; font-weight: normal;&quot;&gt;Grad Student Desk&lt;/span&gt;&lt;/h1&gt;" style="text;html=1;spacing=5;spacingTop=-20;whiteSpace=wrap;overflow=hidden;rounded=0;" vertex="1" parent="1">
          <mxGeometry x="447.5" y="667" width="122.5" height="39" as="geometry" />
        </mxCell>
      </root>
    </mxGraphModel>
  </diagram>
</mxfile>
